<svg id="Layer_1" xmlns="http://www.w3.org/2000/svg" viewBox="0 0 192.1 86.5"><style>.st0{enable-background:new}.st1{fill:#fff}</style><title>Asset 1</title><g id="Layer_2_1_"><g id="Layer_1-2"><g class="st0"><path class="st1" d="M22.4 79.9v-8.8h-3.3v-1.2H27v1.2h-3.3v8.8h-1.3zm8 0v-10h4.4c.9 0 1.6.1 2 .3.5.2.8.5 1.1 1s.4 1 .4 1.5c0 .7-.2 1.3-.7 1.8s-1.2.8-2.1.9c.4.2.6.3.8.5.4.4.8.8 1.1 1.3l1.7 2.7h-1.7l-1.3-2.1c-.4-.6-.7-1.1-1-1.4l-.7-.7c-.2-.2-.4-.2-.6-.3h-2.2v4.5h-1.2zm1.3-5.6h2.9c.6 0 1.1-.1 1.4-.2.3-.1.6-.3.8-.6.2-.3.3-.6.3-.9 0-.5-.2-.9-.5-1.2s-1-.4-1.7-.4h-3.2v3.3zm9.7 5.6l3.8-10h1.4l4.1 10h-1.5l-1.2-3h-4.2l-1.1 3h-1.3zm2.8-4.1h3.4l-1-2.8c-.3-.8-.6-1.5-.7-2.1-.1.6-.3 1.3-.5 1.9l-1.2 3zm9.6 4.1v-10h1.4l5.3 7.9v-7.9h1.3v10h-1.4L55 72.1V80h-1.2zm11.6-3.2l1.3-.1c.1.5.2.9.4 1.2.2.3.6.6 1 .8.5.2 1 .3 1.5.3s1-.1 1.3-.2.7-.4.9-.6c.2-.3.3-.5.3-.9 0-.3-.1-.6-.3-.8-.2-.2-.5-.4-.9-.6-.3-.1-.9-.3-1.8-.5s-1.6-.4-1.9-.6c-.5-.3-.8-.6-1.1-.9-.2-.4-.4-.8-.4-1.2 0-.5.1-1 .4-1.4.3-.4.7-.8 1.3-1s1.2-.3 1.8-.3c.7 0 1.4.1 2 .4.6.2 1 .6 1.3 1.1s.5 1 .5 1.6l-1.3.1c-.1-.6-.3-1.1-.7-1.4s-1-.5-1.7-.5c-.8 0-1.4.1-1.8.4-.4.3-.6.6-.6 1.1 0 .4.1.7.4.9.3.2.9.5 2 .7 1.1.2 1.8.5 2.2.6.6.3 1 .6 1.3 1 .3.4.4.9.4 1.4 0 .5-.2 1-.5 1.5s-.7.8-1.3 1.1c-.6.3-1.2.4-1.9.4-.9 0-1.7-.1-2.3-.4s-1.1-.7-1.4-1.2c-.2-.7-.3-1.3-.4-2zm11.8 3.2v-10H81c.7 0 1.2 0 1.5.1.5.1.9.2 1.2.5.3.2.6.6.8 1s.3.9.3 1.4c0 .9-.3 1.6-.8 2.2-.5.6-1.5.9-2.9.9h-2.6v4.1h-1.3zm1.3-5.2h2.6c.9 0 1.5-.2 1.8-.5s.5-.8.5-1.3c0-.4-.1-.8-.3-1.1-.2-.3-.5-.5-.8-.6-.2-.1-.6-.1-1.2-.1h-2.6v3.6zm9.6.4c0-1.7.4-3 1.3-3.9.9-.9 2-1.4 3.5-1.4.9 0 1.8.2 2.5.7s1.3 1.1 1.7 1.8c.4.8.6 1.7.6 2.7 0 1-.2 1.9-.6 2.7s-1 1.4-1.7 1.8c-.8.4-1.6.6-2.4.6-.9 0-1.8-.2-2.5-.7s-1.3-1.1-1.7-1.9-.7-1.6-.7-2.4zm1.4 0c0 1.2.3 2.2 1 2.9.6.7 1.5 1 2.4 1 1 0 1.8-.4 2.5-1.1s1-1.7 1-3c0-.8-.1-1.5-.4-2.1-.3-.6-.7-1.1-1.2-1.4-.5-.3-1.1-.5-1.8-.5-.9 0-1.7.3-2.4 1-.8.6-1.1 1.7-1.1 3.2zm11.9 4.8v-10h4.4c.9 0 1.6.1 2 .3.5.2.8.5 1.1 1 .3.5.4 1 .4 1.5 0 .7-.2 1.3-.7 1.8-.5.5-1.2.8-2.1.9.4.2.6.3.8.5.4.4.8.8 1.1 1.3l1.7 2.7h-1.7l-1.3-2.1c-.4-.6-.7-1.1-1-1.4l-.7-.7c-.2-.2-.4-.2-.6-.3h-2.2v4.5h-1.2zm1.4-5.6h2.9c.6 0 1.1-.1 1.4-.2.3-.1.6-.3.8-.6.2-.3.3-.6.3-.9 0-.5-.2-.9-.5-1.2-.3-.3-.9-.5-1.6-.5h-3.2v3.4zm13 5.6v-8.8h-3.3v-1.2h7.9v1.2h-3.3v8.8h-1.3zm5.9 0l3.8-10h1.4l4.1 10h-1.5l-1.2-3h-4.2l-1.1 3h-1.3zm2.8-4.1h3.4l-1-2.8c-.3-.8-.6-1.5-.7-2.1-.1.6-.3 1.3-.5 1.9l-1.2 3zm11.1 4.1v-8.8h-3.3v-1.2h7.9v1.2h-3.3v8.8h-1.3zm8.2 0v-10h1.3v10h-1.3zm5.3-4.8c0-1.7.4-3 1.3-3.9.9-.9 2-1.4 3.5-1.4.9 0 1.8.2 2.5.7.7.4 1.3 1.1 1.7 1.8.4.8.6 1.7.6 2.7 0 1-.2 1.9-.6 2.7s-1 1.4-1.7 1.8c-.8.4-1.6.6-2.4.6-.9 0-1.8-.2-2.5-.7-.7-.5-1.3-1.1-1.7-1.9s-.7-1.6-.7-2.4zm1.3 0c0 1.2.3 2.2 1 2.9.6.7 1.5 1 2.4 1 1 0 1.8-.4 2.5-1.1.6-.7 1-1.7 1-3 0-.8-.1-1.5-.4-2.1-.3-.6-.7-1.1-1.2-1.4-.5-.3-1.1-.5-1.8-.5-.9 0-1.7.3-2.4 1-.7.6-1.1 1.7-1.1 3.2zm11.9 4.8v-10h1.4l5.3 7.9v-7.9h1.3v10h-1.4l-5.3-7.9v7.9h-1.3z"/></g><path class="st1" d="M21.6 16.5c11.8-4.1 24.2-6.3 36.6-7.7C64.5 8 70.7 7.5 77 7.2s12.5-.5 18.8-.6 12.5.1 18.8.4 12.5.8 18.7 1.4 12.4 1.6 18.6 2.8c6.2 1.2 12.2 2.9 18 5.3-5.9-2-12-3.4-18.1-4.3-6.1-1-12.3-1.7-18.5-2.2-12.4-1-24.8-1.5-37.3-1.4s-24.9.6-37.3 1.7c-6.2.6-12.4 1.3-18.5 2.3-6.4.9-12.5 2.2-18.6 3.9z"/><circle class="st1" cx="96.2" cy="7.6" r="7.6"/><path class="st1" d="M11.7 63c-2.2 0-4.4-.2-6.5-.8-1.8-.5-3.5-1.2-5.2-2v-8.9h.7C2.2 52.8 4 54.1 6 54.9c1.8.8 3.7 1.2 5.7 1.3.6 0 1.2-.1 1.8-.2.6-.1 1.3-.3 1.8-.5.6-.3 1-.7 1.4-1.2.4-.6.6-1.3.6-2 0-.9-.3-1.7-1-2.3-.7-.6-1.4-1-2.3-1.3-1.1-.3-2.3-.6-3.5-.9-1.2-.3-2.4-.6-3.5-1.1-2.2-.8-4-2.2-5.4-4.1C.5 40.7-.1 38.5 0 36.2c.1-3.2 1.5-6.3 4-8.4 2.7-2.2 6.1-3.3 9.6-3.2 1.9 0 3.8.2 5.7.7 1.8.4 3.5 1 5.1 1.8v8.5h-.7c-1.3-1.2-2.8-2.3-4.4-3-1.6-.8-3.5-1.2-5.3-1.2-.6 0-1.3.1-1.9.2-.6.1-1.2.4-1.8.7-.5.3-1 .7-1.3 1.2-.9 1.2-.7 2.9.3 4 1 .8 2.2 1.3 3.4 1.5l3.1.8c1.1.3 2.2.7 3.2 1.1 2 .7 3.7 2 5 3.7 1.2 1.9 1.7 4 1.6 6.2.1 3.4-1.3 6.6-3.8 8.9C19.4 61.9 16 63 11.7 63zm33.9-1.4c-5.2 0-9.3-1.2-12.1-3.5-2.8-2.4-4.2-5.8-4.2-10.3V24.6h9.8v22.6c0 2.5.5 4.4 1.5 5.6s2.7 1.8 5 1.8 3.9-.6 5-1.8 1.6-3.1 1.6-5.7V24.6H62v23.1c0 4.5-1.4 7.9-4.2 10.3s-6.8 3.6-12.2 3.6zm57 0h-8.2L78.3 43.8v17.8H66.7v-37h9.9L91 41.8V24.6h11.6v37zm31.4-.1V25h24.6v8.8h-12.5V39h11.3v7.8h-11.3v6h15.5l-4 8.8-23.6-.1zm35.9.4V34h-9.3v-9H192v9h-8.9v27.9h-13.2zM117.7 63c-2.2 0-4.4-.2-6.5-.8-1.8-.5-3.5-1.2-5.2-2v-8.9h.7c1.5 1.5 3.3 2.8 5.3 3.6 1.8.8 3.7 1.2 5.7 1.3.6 0 1.2-.1 1.8-.2.6-.1 1.3-.3 1.8-.5.6-.3 1-.7 1.4-1.2.4-.6.6-1.3.6-2 0-.9-.4-1.7-1-2.3-.7-.6-1.4-1-2.3-1.3-1.1-.3-2.3-.6-3.5-.9-1.2-.3-2.4-.6-3.5-1.1-2.2-.8-4-2.2-5.4-4.1-1.1-1.9-1.7-4.2-1.6-6.4-.1-3.3 1.3-6.4 3.9-8.4 2.7-2.2 6.1-3.3 9.6-3.2 1.9 0 3.8.2 5.7.7 1.8.4 3.5 1 5.1 1.8v8.5h-.7c-1.3-1.2-2.8-2.3-4.4-3-1.6-.8-3.5-1.2-5.3-1.2-.6 0-1.3.1-1.9.2s-1.2.4-1.8.7c-.5.3-1 .7-1.3 1.2-.9 1.2-.7 2.9.3 4 1 .8 2.2 1.3 3.4 1.5l3.1.8c1.1.3 2.2.7 3.2 1.1 2 .7 3.7 2 5 3.7 1.2 1.9 1.7 4 1.6 6.2.1 3.4-1.3 6.6-3.8 8.9-2.3 2.2-5.7 3.3-10 3.3z"/></g></g></svg>