<?xml version="1.0" encoding="utf-8"?>
<!-- Generator: Adobe Illustrator 22.0.1, SVG Export Plug-In . SVG Version: 6.00 Build 0)  -->
<svg version="1.1" id="Layer_1" xmlns="http://www.w3.org/2000/svg" xmlns:xlink="http://www.w3.org/1999/xlink" x="0px" y="0px"
	 viewBox="0 0 192.1 86.5" style="enable-background:new 0 0 192.1 86.5;" xml:space="preserve">
<style type="text/css">
	.st0{enable-background:new    ;}
	.st1{fill:#FFFFFF;}
</style>
<title>Asset 1</title>
<g id="Layer_2_1_">
	<g id="Layer_1-2">
		<g class="st0">
			<path class="st1" d="M22.4,79.9v-8.8h-3.3v-1.2H27v1.2h-3.3v8.8H22.4z"/>
			<path class="st1" d="M30.4,79.9v-10h4.4c0.9,0,1.6,0.1,2,0.3c0.5,0.2,0.8,0.5,1.1,1s0.4,1,0.4,1.5c0,0.7-0.2,1.3-0.7,1.8
				s-1.2,0.8-2.1,0.9c0.4,0.2,0.6,0.3,0.8,0.5c0.4,0.4,0.8,0.8,1.1,1.3l1.7,2.7h-1.7l-1.3-2.1c-0.4-0.6-0.7-1.1-1-1.4
				s-0.5-0.5-0.7-0.7s-0.4-0.2-0.6-0.3c-0.2,0-0.4,0-0.7,0h-1.5v4.5H30.4z M31.7,74.3h2.9c0.6,0,1.1-0.1,1.4-0.2
				c0.3-0.1,0.6-0.3,0.8-0.6c0.2-0.3,0.3-0.6,0.3-0.9c0-0.5-0.2-0.9-0.5-1.2S35.6,71,34.9,71h-3.2V74.3z"/>
			<path class="st1" d="M41.4,79.9l3.8-10h1.4l4.1,10h-1.5l-1.2-3h-4.2l-1.1,3H41.4z M44.2,75.8h3.4l-1-2.8
				c-0.3-0.8-0.6-1.5-0.7-2.1c-0.1,0.6-0.3,1.3-0.5,1.9L44.2,75.8z"/>
			<path class="st1" d="M53.8,79.9v-10h1.4l5.3,7.9v-7.9h1.3v10h-1.4L55,72.1v7.9H53.8z"/>
			<path class="st1" d="M65.4,76.7l1.3-0.1c0.1,0.5,0.2,0.9,0.4,1.2c0.2,0.3,0.6,0.6,1,0.8c0.5,0.2,1,0.3,1.5,0.3
				c0.5,0,1-0.1,1.3-0.2s0.7-0.4,0.9-0.6c0.2-0.3,0.3-0.5,0.3-0.9c0-0.3-0.1-0.6-0.3-0.8c-0.2-0.2-0.5-0.4-0.9-0.6
				c-0.3-0.1-0.9-0.3-1.8-0.5c-0.9-0.2-1.6-0.4-1.9-0.6c-0.5-0.3-0.8-0.6-1.1-0.9c-0.2-0.4-0.4-0.8-0.4-1.2c0-0.5,0.1-1,0.4-1.4
				c0.3-0.4,0.7-0.8,1.3-1s1.2-0.3,1.8-0.3c0.7,0,1.4,0.1,2,0.4c0.6,0.2,1,0.6,1.3,1.1s0.5,1,0.5,1.6l-1.3,0.1
				c-0.1-0.6-0.3-1.1-0.7-1.4s-1-0.5-1.7-0.5c-0.8,0-1.4,0.1-1.8,0.4c-0.4,0.3-0.6,0.6-0.6,1.1c0,0.4,0.1,0.7,0.4,0.9
				c0.3,0.2,0.9,0.5,2,0.7c1.1,0.2,1.8,0.5,2.2,0.6c0.6,0.3,1,0.6,1.3,1c0.3,0.4,0.4,0.9,0.4,1.4c0,0.5-0.2,1-0.5,1.5
				c-0.3,0.5-0.7,0.8-1.3,1.1c-0.6,0.3-1.2,0.4-1.9,0.4c-0.9,0-1.7-0.1-2.3-0.4s-1.1-0.7-1.4-1.2C65.6,78,65.5,77.4,65.4,76.7z"/>
			<path class="st1" d="M77.2,79.9v-10H81c0.7,0,1.2,0,1.5,0.1c0.5,0.1,0.9,0.2,1.2,0.5c0.3,0.2,0.6,0.6,0.8,1s0.3,0.9,0.3,1.4
				c0,0.9-0.3,1.6-0.8,2.2c-0.5,0.6-1.5,0.9-2.9,0.9h-2.6v4.1H77.2z M78.5,74.7h2.6c0.9,0,1.5-0.2,1.8-0.5s0.5-0.8,0.5-1.3
				c0-0.4-0.1-0.8-0.3-1.1c-0.2-0.3-0.5-0.5-0.8-0.6c-0.2-0.1-0.6-0.1-1.2-0.1h-2.6V74.7z"/>
			<path class="st1" d="M88.1,75.1c0-1.7,0.4-3,1.3-3.9c0.9-0.9,2-1.4,3.5-1.4c0.9,0,1.8,0.2,2.5,0.7s1.3,1.1,1.7,1.8
				c0.4,0.8,0.6,1.7,0.6,2.7c0,1-0.2,1.9-0.6,2.7s-1,1.4-1.7,1.8c-0.8,0.4-1.6,0.6-2.4,0.6c-0.9,0-1.8-0.2-2.5-0.7s-1.3-1.1-1.7-1.9
				S88.1,75.9,88.1,75.1z M89.5,75.1c0,1.2,0.3,2.2,1,2.9c0.6,0.7,1.5,1,2.4,1c1,0,1.8-0.4,2.5-1.1s1-1.7,1-3c0-0.8-0.1-1.5-0.4-2.1
				c-0.3-0.6-0.7-1.1-1.2-1.4c-0.5-0.3-1.1-0.5-1.8-0.5c-0.9,0-1.7,0.3-2.4,1C89.8,72.5,89.5,73.6,89.5,75.1z"/>
			<path class="st1" d="M101.4,79.9v-10h4.4c0.9,0,1.6,0.1,2,0.3c0.5,0.2,0.8,0.5,1.1,1c0.3,0.5,0.4,1,0.4,1.5
				c0,0.7-0.2,1.3-0.7,1.8c-0.5,0.5-1.2,0.8-2.1,0.9c0.4,0.2,0.6,0.3,0.8,0.5c0.4,0.4,0.8,0.8,1.1,1.3l1.7,2.7h-1.7l-1.3-2.1
				c-0.4-0.6-0.7-1.1-1-1.4c-0.3-0.3-0.5-0.5-0.7-0.7s-0.4-0.2-0.6-0.3c-0.2,0-0.4,0-0.7,0h-1.5v4.5H101.4z M102.8,74.3h2.9
				c0.6,0,1.1-0.1,1.4-0.2c0.3-0.1,0.6-0.3,0.8-0.6c0.2-0.3,0.3-0.6,0.3-0.9c0-0.5-0.2-0.9-0.5-1.2c-0.3-0.3-0.9-0.5-1.6-0.5h-3.2
				V74.3z"/>
			<path class="st1" d="M115.8,79.9v-8.8h-3.3v-1.2h7.9v1.2h-3.3v8.8H115.8z"/>
			<path class="st1" d="M121.7,79.9l3.8-10h1.4l4.1,10h-1.5l-1.2-3h-4.2l-1.1,3H121.7z M124.5,75.8h3.4l-1-2.8
				c-0.3-0.8-0.6-1.5-0.7-2.1c-0.1,0.6-0.3,1.3-0.5,1.9L124.5,75.8z"/>
			<path class="st1" d="M135.6,79.9v-8.8h-3.3v-1.2h7.9v1.2h-3.3v8.8H135.6z"/>
			<path class="st1" d="M143.8,79.9v-10h1.3v10H143.8z"/>
			<path class="st1" d="M149.1,75.1c0-1.7,0.4-3,1.3-3.9c0.9-0.9,2-1.4,3.5-1.4c0.9,0,1.8,0.2,2.5,0.7c0.7,0.4,1.3,1.1,1.7,1.8
				c0.4,0.8,0.6,1.7,0.6,2.7c0,1-0.2,1.9-0.6,2.7s-1,1.4-1.7,1.8c-0.8,0.4-1.6,0.6-2.4,0.6c-0.9,0-1.8-0.2-2.5-0.7
				c-0.7-0.5-1.3-1.1-1.7-1.9S149.1,75.9,149.1,75.1z M150.4,75.1c0,1.2,0.3,2.2,1,2.9c0.6,0.7,1.5,1,2.4,1c1,0,1.8-0.4,2.5-1.1
				c0.6-0.7,1-1.7,1-3c0-0.8-0.1-1.5-0.4-2.1c-0.3-0.6-0.7-1.1-1.2-1.4c-0.5-0.3-1.1-0.5-1.8-0.5c-0.9,0-1.7,0.3-2.4,1
				C150.8,72.5,150.4,73.6,150.4,75.1z"/>
			<path class="st1" d="M162.3,79.9v-10h1.4l5.3,7.9v-7.9h1.3v10h-1.4l-5.3-7.9v7.9H162.3z"/>
		</g>
		<path class="st1" d="M21.6,16.5c11.8-4.1,24.2-6.3,36.6-7.7C64.5,8,70.7,7.5,77,7.2s12.5-0.5,18.8-0.6s12.5,0.1,18.8,0.4
			s12.5,0.8,18.7,1.4s12.4,1.6,18.6,2.8c6.2,1.2,12.2,2.9,18,5.3c-5.9-2-12-3.4-18.1-4.3c-6.1-1-12.3-1.7-18.5-2.2
			C120.9,9,108.5,8.5,96,8.6s-24.9,0.6-37.3,1.7c-6.2,0.6-12.4,1.3-18.5,2.3C33.8,13.5,27.7,14.8,21.6,16.5z"/>
		<circle class="st1" cx="96.2" cy="7.6" r="7.6"/>
		<path class="st1" d="M11.7,63c-2.2,0-4.4-0.2-6.5-0.8c-1.8-0.5-3.5-1.2-5.2-2v-8.9h0.7C2.2,52.8,4,54.1,6,54.9
			c1.8,0.8,3.7,1.2,5.7,1.3c0.6,0,1.2-0.1,1.8-0.2c0.6-0.1,1.3-0.3,1.8-0.5c0.6-0.3,1-0.7,1.4-1.2c0.4-0.6,0.6-1.3,0.6-2
			c0-0.9-0.3-1.7-1-2.3c-0.7-0.6-1.4-1-2.3-1.3c-1.1-0.3-2.3-0.6-3.5-0.9c-1.2-0.3-2.4-0.6-3.5-1.1c-2.2-0.8-4-2.2-5.4-4.1
			c-1.1-1.9-1.7-4.1-1.6-6.4c0.1-3.2,1.5-6.3,4-8.4c2.7-2.2,6.1-3.3,9.6-3.2c1.9,0,3.8,0.2,5.7,0.7c1.8,0.4,3.5,1,5.1,1.8v8.5h-0.7
			c-1.3-1.2-2.8-2.3-4.4-3c-1.6-0.8-3.5-1.2-5.3-1.2c-0.6,0-1.3,0.1-1.9,0.2c-0.6,0.1-1.2,0.4-1.8,0.7c-0.5,0.3-1,0.7-1.3,1.2
			c-0.9,1.2-0.7,2.9,0.3,4c1,0.8,2.2,1.3,3.4,1.5l3.1,0.8c1.1,0.3,2.2,0.7,3.2,1.1c2,0.7,3.7,2,5,3.7c1.2,1.9,1.7,4,1.6,6.2
			c0.1,3.4-1.3,6.6-3.8,8.9C19.4,61.9,16,63,11.7,63z"/>
		<path class="st1" d="M45.6,61.6c-5.2,0-9.3-1.2-12.1-3.5c-2.8-2.4-4.2-5.8-4.2-10.3V24.6h9.8v22.6c0,2.5,0.5,4.4,1.5,5.6
			s2.7,1.8,5,1.8s3.9-0.6,5-1.8s1.6-3.1,1.6-5.7V24.6H62v23.1c0,4.5-1.4,7.9-4.2,10.3S51,61.6,45.6,61.6z"/>
		<path class="st1" d="M102.6,61.6h-8.2L78.3,43.8v17.8H66.7v-37h9.9L91,41.8V24.6h11.6V61.6z"/>
		<path class="st1" d="M134,61.5V25h24.6v8.8h-12.5V39h11.3v7.8h-11.3v6h15.5l-4,8.8L134,61.5z"/>
		<path class="st1" d="M169.9,61.9V34h-9.3v-9H192v9h-8.9v27.9H169.9z"/>
		<path class="st1" d="M117.7,63c-2.2,0-4.4-0.2-6.5-0.8c-1.8-0.5-3.5-1.2-5.2-2v-8.9h0.7c1.5,1.5,3.3,2.8,5.3,3.6
			c1.8,0.8,3.7,1.2,5.7,1.3c0.6,0,1.2-0.1,1.8-0.2c0.6-0.1,1.3-0.3,1.8-0.5c0.6-0.3,1-0.7,1.4-1.2c0.4-0.6,0.6-1.3,0.6-2
			c0-0.9-0.4-1.7-1-2.3c-0.7-0.6-1.4-1-2.3-1.3c-1.1-0.3-2.3-0.6-3.5-0.9c-1.2-0.3-2.4-0.6-3.5-1.1c-2.2-0.8-4-2.2-5.4-4.1
			c-1.1-1.9-1.7-4.2-1.6-6.4c-0.1-3.3,1.3-6.4,3.9-8.4c2.7-2.2,6.1-3.3,9.6-3.2c1.9,0,3.8,0.2,5.7,0.7c1.8,0.4,3.5,1,5.1,1.8v8.5
			h-0.7c-1.3-1.2-2.8-2.3-4.4-3c-1.6-0.8-3.5-1.2-5.3-1.2c-0.6,0-1.3,0.1-1.9,0.2s-1.2,0.4-1.8,0.7c-0.5,0.3-1,0.7-1.3,1.2
			c-0.9,1.2-0.7,2.9,0.3,4c1,0.8,2.2,1.3,3.4,1.5l3.1,0.8c1.1,0.3,2.2,0.7,3.2,1.1c2,0.7,3.7,2,5,3.7c1.2,1.9,1.7,4,1.6,6.2
			c0.1,3.4-1.3,6.6-3.8,8.9C125.4,61.9,122,63,117.7,63z"/>
	</g>
</g>
</svg>
